<svg xmlns="http://www.w3.org/2000/svg" xml:space="preserve" id="Calque_1" x="0" y="0" style="enable-background:new 0 0 640 225" version="1.0" viewBox="0 0 640 225"><style>.st0{fill:#2d7085}.st7{fill:#6697a7}</style><path d="M315.4 65.9c0-9.1 2.2-16.1 6.6-21 4.4-4.9 10.9-7.3 19.5-7.3s15.1 2.4 19.5 7.3 6.6 11.9 6.6 21v3.5h-16.7v-4.7c0-7.4-2.9-11.1-8.9-11.1-5.9 0-8.9 3.7-8.9 11.1 0 4.2 1.2 8.1 3.5 11.8 2.4 3.7 5.2 7.1 8.6 10.1 3.4 3 6.8 6.1 10.2 9.4 3.4 3.3 6.3 7.4 8.7 12.2 2.4 4.9 3.5 10.3 3.5 16.2 0 9.1-2.3 16.1-6.8 21-4.5 4.9-11.1 7.3-19.6 7.3-8.6 0-15.1-2.4-19.6-7.3-4.5-4.9-6.8-11.9-6.8-21v-6.9h16.8v8.1c0 7.3 3.1 10.9 9.2 10.9s9.2-3.6 9.2-10.9c0-4.2-1.2-8.1-3.5-11.8-2.4-3.7-5.2-7.1-8.6-10.1-3.4-3-6.8-6.1-10.2-9.4-3.4-3.3-6.3-7.4-8.7-12.2-2.4-4.9-3.6-10.3-3.6-16.2zM376.4 124.5V65.9c0-9 2.3-16 6.9-20.9 4.6-4.9 11.3-7.4 20-7.4s15.4 2.5 20 7.4 6.9 11.9 6.9 20.9v58.6c0 9-2.3 16-6.9 20.9-4.6 4.9-11.3 7.4-20 7.4s-15.3-2.5-20-7.4c-4.5-4.9-6.9-11.9-6.9-20.9zm17.8-59.8v60.9c0 7.4 3.1 11.1 9.2 11.1s9.2-3.7 9.2-11.1V64.7c0-7.4-3.1-11.1-9.2-11.1-6.2 0-9.2 3.7-9.2 11.1zM468.2 104.8V88.7H493v35.7c0 9.1-2.3 16.1-6.8 21-4.5 4.9-11.1 7.3-19.6 7.3-8.6 0-15.1-2.4-19.6-7.3-4.5-4.9-6.8-11.9-6.8-21V65.9c0-9.1 2.3-16.1 6.8-21 4.5-4.9 11.1-7.3 19.6-7.3 8.6 0 15.1 2.4 19.6 7.3 4.5 4.9 6.8 11.9 6.8 21v11h-16.8V64.7c0-7.4-3.1-11.1-9.2-11.1s-9.2 3.7-9.2 11.1v60.9c0 7.3 3.1 10.9 9.2 10.9s9.2-3.6 9.2-10.9v-20.8h-8zM522.2 54.9v31.4h24.3v16.1h-24.3v33h30.6v16.1h-48.3V38.8h48.3v16.1h-30.6zM581.5 54.9v34h22.9V105h-22.9v46.5h-17.7V38.8h46.9v16.1h-29.2zM619.1 151.5V38.8h17.7v112.7h-17.7z" class="st0"/><path d="M274.9 56.7c-5.4 2.5-10.9 4.9-16.3 7.4-3.3 1.5-5.7 6.2-5.6 9.7.1 3.6 2.8 4.7 5.8 3.4 5.4-2.5 10.9-4.9 16.3-7.4 3.3-1.5 5.7-6.2 5.6-9.7 0-3.6-2.8-4.8-5.8-3.4z" style="fill:#bcd2d9"/><path d="M274.9 101.2c-5.2 2.4-10.4 4.7-15.7 7.1-3.3 1.5-5.7 6.2-5.6 9.7.1 3.6 2.8 4.7 5.8 3.4 5.2-2.4 10.4-4.7 15.7-7.1 3.3-1.5 5.7-6.2 5.6-9.7 0-3.6-2.8-4.8-5.8-3.4z" style="fill:#ffe6b9"/><path d="m274.9 145.7-15.9 7.2c-3.3 1.5-5.7 6.2-5.6 9.7.1 3.6 2.8 4.7 5.8 3.4l15.9-7.2c3.3-1.5 5.7-6.2 5.6-9.7 0-3.7-2.8-4.8-5.8-3.4z" style="fill:#f8d9d7"/><path d="M236.4 73.6c-10.3 4.8-20.6 9.5-30.9 14.3-6.1 2.8-9.2 18.8.2 14.4 10.3-4.8 20.6-9.5 31-14.3 6.1-2.8 9.2-18.8-.3-14.4z" style="fill:#95b6c3"/><path d="m236.4 118.1-30.3 13.8c-6.1 2.8-9.3 18.7.2 14.4l30.3-13.8c6.2-2.8 9.3-18.8-.2-14.4z" style="fill:#fdd88f"/><path d="M236.4 162.5c-10.2 4.6-20.4 9.3-30.6 13.9-6.1 2.8-9.3 18.7.2 14.4 10.2-4.6 20.4-9.3 30.6-13.9 6.2-2.7 9.3-18.7-.2-14.4z" style="fill:#ed998e"/><path d="M180.6 98c-14.2 6.4-28.4 12.9-42.5 19.3C98.3 100 58.4 82.8 18.6 65.5 57.5 49.3 96.5 33.1 135.4 17c7-2.9 10.6-20.7-.3-16.2-45 18.6-90 37.4-135.1 56.1v21.8c31.5 13.7 62.9 27.3 94.4 41l36 15.6c2.9 1.3 6.3-1 8.9-2.2 4.9-2.2 9.8-4.5 14.8-6.7 8.8-4 17.6-8 26.3-12 .2-.1.3-.1.5-.2 6.9-3.1 10.4-21.1-.3-16.2z" class="st7"/><path d="m181.6 142.1-43.5 19.8C92.5 142.1 47 122.3 1.4 102.5c-.5-.2-.9-.3-1.4-.4v21c31.5 13.7 62.9 27.3 94.4 41l36 15.6c2.9 1.3 6.2-.9 8.9-2.1 4.9-2.2 9.8-4.4 14.6-6.7 9-4.1 18.1-8.2 27.1-12.3.3-.1.5-.2.8-.4 6.9-3.1 10.4-21-.2-16.1z" style="fill:#fcc85e"/><path d="M180.7 187c-14.2 6.4-28.4 12.9-42.6 19.3C92.5 186.5 47 166.8 1.4 147c-.5-.2-.9-.3-1.4-.4v21c31.5 13.7 62.9 27.3 94.4 41l36 15.6c2.9 1.3 6.3-1 8.9-2.2 4.9-2.2 9.9-4.5 14.8-6.7 8.8-4 17.6-8 26.3-12 .2-.1.3-.1.5-.2 6.9-3.1 10.4-21-.2-16.1z" style="fill:#e45f51"/><path d="M316.3 212.9v-49.8h4.6v49.8h-4.6zM335.6 212.9V182c0-1.1-.2-1.9-.6-2.3-.4-.5-1-.7-1.9-.7-.6 0-1.2.2-1.8.5-.6.4-1.1.9-1.4 1.8v31.6h-4.2v-37.4h3.5c.1.9.2 1.9.2 2.8.6-1 1.3-1.9 2.3-2.5s2-.9 3.2-.9c1.7 0 3 .5 3.8 1.6.8 1.1 1.2 2.8 1.2 5.3v31.1h-4.3zM354.1 208.8c-.4.7-1.1 1.3-1.9 1.7-.8.4-1.8.6-2.8.6-2 0-3.4-.5-4.2-1.6-.9-1-1.3-2.8-1.3-5.3V182c0-2.4.5-4.2 1.4-5.3.9-1.1 2.2-1.7 4-1.7 1.3 0 2.4.3 3.2.8.8.5 1.5 1.3 2 2.4v-1.4c0-.5 0-.9.1-1.4h3.5v39.4c0 2.3-.6 4.1-1.7 5.3-1.1 1.2-2.9 1.8-5.2 1.8-1.3 0-2.4-.2-3.3-.5-.9-.3-1.6-.8-2.1-1.4-.5-.6-.9-1.3-1.1-2.2-.2-.9-.3-1.9-.3-3v-1.5h3.8v1.7c0 2.2 1 3.3 3.1 3.3 2 0 2.9-1.1 2.9-3.3v-6.2zm0-26.8c-.3-.8-.8-1.4-1.4-1.8-.6-.4-1.3-.6-2-.6-1.1 0-1.8.3-2.1.8-.4.5-.5 1.2-.5 2.1v21.8c0 1 .2 1.8.6 2.3.4.5 1.1.7 2.1.7.7 0 1.4-.2 2-.6.6-.4 1.1-1 1.4-1.8V182zM371.4 197.7h4v8.2c0 5-2.3 7.6-6.8 7.6-4.4 0-6.5-2.5-6.5-7.6v-23.3c0-2.5.6-4.4 1.7-5.7 1.1-1.3 2.7-1.9 4.9-1.9 4.5 0 6.8 2.6 6.8 7.7v12h-9.4V206c0 2.2.9 3.3 2.6 3.3 1.9 0 2.8-1.1 2.8-3.3v-8.3zm-6.3-24.4 6.8-9.7h5.4l-8.2 9.7h-4zm6.3 9.3c0-2.2-.9-3.3-2.8-3.3-1.8 0-2.6 1.1-2.6 3.3v9h5.4v-9zM389.4 212.9V182c0-1.1-.2-1.9-.6-2.3-.4-.5-1-.7-1.9-.7-.6 0-1.2.2-1.8.5-.6.4-1.1.9-1.4 1.8v31.6h-4.2v-37.4h3.5c.1.9.2 1.9.2 2.8.6-1 1.3-1.9 2.3-2.5s2-.9 3.2-.9c1.7 0 3 .5 3.8 1.6.8 1.1 1.2 2.8 1.2 5.3v31.1h-4.3zM398.1 170.7v-7.6h4.2v7.6h-4.2zm0 42.2v-37.4h4.2v37.4h-4.2zM416 197.7h4v8.2c0 5-2.3 7.6-6.8 7.6-4.4 0-6.5-2.5-6.5-7.6v-23.3c0-2.5.6-4.4 1.7-5.7 1.1-1.3 2.7-1.9 4.9-1.9 4.5 0 6.8 2.6 6.8 7.7v12h-9.4V206c0 2.2.9 3.3 2.6 3.3 1.9 0 2.8-1.1 2.8-3.3v-8.3zm0-15.1c0-2.2-.9-3.3-2.8-3.3-1.8 0-2.6 1.1-2.6 3.3v9h5.4v-9zM424.1 212.9v-37.4h3.5c.1.9.2 1.8.2 2.7.5-1.1 1.2-1.9 1.9-2.4.8-.5 1.6-.7 2.7-.7.6 0 1 .1 1.3.2v4.7c-.2-.2-.5-.3-.9-.3-.4-.1-.7-.1-1-.1-.7 0-1.3.2-1.9.5-.6.3-1.2.9-1.6 1.8V213h-4.2zM436.9 170.7v-7.6h4.2v7.6h-4.2zm0 42.2v-37.4h4.2v37.4h-4.2zM454.8 197.7h4v8.2c0 5-2.3 7.6-6.8 7.6-4.4 0-6.5-2.5-6.5-7.6v-23.3c0-2.5.6-4.4 1.7-5.7 1.1-1.3 2.7-1.9 4.9-1.9 4.5 0 6.8 2.6 6.8 7.7v12h-9.4V206c0 2.2.9 3.3 2.6 3.3 1.9 0 2.8-1.1 2.8-3.3v-8.3zm0-15.1c0-2.2-.9-3.3-2.8-3.3-1.8 0-2.6 1.1-2.6 3.3v9h5.4v-9zM486.1 213.2l-1.5-2.7c-.5 1-1.3 1.7-2.4 2.2-1.1.5-2.3.8-3.7.8-1.1 0-2.1-.1-3-.4-.9-.3-1.7-.8-2.4-1.4-.7-.7-1.2-1.5-1.6-2.6-.4-1.1-.6-2.4-.6-4v-33.9c0-2.8.7-4.9 2-6.3 1.3-1.5 3.3-2.2 6-2.2s4.6.7 5.8 2.2 1.8 3.6 1.8 6.3v8.8h-4.2v-8.8c0-1.3-.3-2.3-.8-2.9-.5-.6-1.4-1-2.7-1-1.2 0-2 .3-2.5 1-.5.6-.8 1.6-.8 2.9V205c0 1.3.3 2.3.9 2.9.6.7 1.4 1 2.3 1 2.2 0 3.4-1.2 3.6-3.6V194h-3.8v-4.4h8.3v23.5h-.7zM499.9 197.7h4v8.2c0 5-2.3 7.6-6.8 7.6-4.4 0-6.5-2.5-6.5-7.6v-23.3c0-2.5.6-4.4 1.7-5.7 1.1-1.3 2.7-1.9 4.9-1.9 4.5 0 6.8 2.6 6.8 7.7v12h-9.4V206c0 2.2.9 3.3 2.6 3.3 1.9 0 2.8-1.1 2.8-3.3v-8.3zm-6.2-24.4 6.8-9.7h5.4l-8.2 9.7h-4zm6.2 9.3c0-2.2-.9-3.3-2.8-3.3-1.8 0-2.6 1.1-2.6 3.3v9h5.4v-9zM507.6 182.4c0-2.4.6-4.3 1.7-5.6 1.1-1.3 2.9-1.9 5.3-1.9 2.3 0 4.1.6 5.2 1.9 1.2 1.3 1.7 3.1 1.7 5.6V206c0 2.4-.6 4.3-1.7 5.5-1.2 1.3-2.9 1.9-5.2 1.9-2.4 0-4.1-.6-5.3-1.9-1.1-1.3-1.7-3.1-1.7-5.5v-23.6zm9.9.1c0-1-.2-1.9-.6-2.4-.4-.6-1.2-.9-2.3-.9s-1.9.3-2.3.9c-.4.6-.6 1.4-.6 2.4V206c0 1 .2 1.8.6 2.4.4.5 1.2.8 2.3.8s1.9-.3 2.3-.8c.4-.6.6-1.4.6-2.5v-23.4zM544.1 212.9v-31.1c0-1.9-.7-2.8-2.1-2.8-.6 0-1.1.2-1.6.5-.5.4-.9.9-1.2 1.8v31.6H535v-31.1c0-1.9-.7-2.8-2.1-2.8-.5 0-1 .2-1.5.5-.5.4-.9.9-1.2 1.8v31.6H526v-37.4h3.5c.1.9.2 1.9.2 2.8.5-1 1.2-1.9 2.1-2.5.9-.6 1.8-.9 2.9-.9 2.2 0 3.5 1.1 4.1 3.3.5-1 1.2-1.8 2.1-2.4.9-.6 1.9-.9 3-.9 1.6 0 2.8.6 3.5 1.7.7 1.1 1.1 2.8 1.1 5.1v31.2h-4.4zM562 212.9c-.2-.5-.2-1.2-.2-2.2-1 1.9-2.5 2.8-4.5 2.8-1.7 0-3-.5-4-1.4-1-.9-1.4-2.4-1.4-4.5V202c0-1.8.3-3.3.8-4.6.5-1.2 1.2-2.3 2.1-3.1.9-.8 1.9-1.6 3.1-2.1 1.2-.6 2.4-1.2 3.8-1.7v-8.2c0-1-.2-1.9-.6-2.4-.4-.6-1.1-.8-2.2-.8s-1.8.3-2.2.8c-.4.6-.5 1.4-.5 2.4v7.9h-3.7v-7.9c0-2.5.5-4.3 1.6-5.5 1-1.2 2.7-1.8 5-1.8 4.4 0 6.7 2.5 6.7 7.4v26.4c0 .9 0 1.7.1 2.5 0 .8.1 1.4.2 1.8H562zm-.5-19.1c-1.2.4-2.2.9-3 1.5-.8.5-1.3 1.1-1.7 1.8s-.6 1.4-.8 2.3c-.1.9-.2 1.9-.2 3v4c0 2.1 1 3.1 2.9 3.1.6 0 1.2-.2 1.7-.5.5-.4.9-1 1.1-1.8v-13.4zM578.2 213.2c-.2.1-.5.2-.9.2-.4.1-.7.1-1.1.1-2.2 0-3.9-.7-5-2.1-1.1-1.4-1.7-3.3-1.7-5.7v-26.5h-1.8v-3.7h1.8v-11.8h4.2v11.8h4.3v3.7h-4.3v26.5c0 1.5.3 2.6.8 3.2.5.6 1.5.9 2.8.9h.4c.1 0 .3 0 .4-.1v3.5zM581.3 170.7v-7.6h4.2v7.6h-4.2zm0 42.2v-37.4h4.2v37.4h-4.2zM599.9 221.3v-10.2c-.5.7-1.1 1.2-1.9 1.7-.8.4-1.7.6-2.7.6-2 0-3.4-.5-4.2-1.5-.9-1-1.3-2.8-1.3-5.3v-24.5c0-2.4.5-4.2 1.4-5.3.9-1.1 2.3-1.7 4-1.7 1.3 0 2.4.3 3.3.9.9.6 1.5 1.4 2 2.3 0-1 .1-1.9.2-2.8h3.5v45.8h-4.3zm0-39.4c-.7-1.7-1.8-2.5-3.3-2.5-.9 0-1.6.2-2 .7-.4.5-.6 1.3-.6 2.4v23.7c0 1.1.2 1.9.6 2.3.4.5 1.1.7 2 .7.7 0 1.3-.2 1.9-.6.6-.4 1-1 1.4-1.8v-24.9zM618.9 212.9c0-.4-.1-.9-.1-1.3v-1.4c-.6 1-1.3 1.8-2.2 2.3-.9.5-2 .8-3.1.8-3.3 0-4.9-2.2-4.9-6.5v-31.4h4.2v30.7c0 1.1.2 1.9.5 2.4.4.4 1 .7 1.8.7.6 0 1.3-.2 1.9-.5s1-.9 1.4-1.7v-31.5h4.2v37.4h-3.7zM636 197.7h4v8.2c0 5-2.3 7.6-6.8 7.6-4.4 0-6.5-2.5-6.5-7.6v-23.3c0-2.5.6-4.4 1.7-5.7 1.1-1.3 2.7-1.9 4.9-1.9 4.5 0 6.8 2.6 6.8 7.7v12h-9.4V206c0 2.2.9 3.3 2.6 3.3 1.9 0 2.8-1.1 2.8-3.3v-8.3zm0-15.1c0-2.2-.9-3.3-2.8-3.3-1.8 0-2.6 1.1-2.6 3.3v9h5.4v-9z" class="st7"/></svg>